<svg id="Gruppe_17" data-name="Gruppe 17" xmlns="http://www.w3.org/2000/svg" width="67" height="67" viewBox="0 0 67 67">
  <g id="Pfad_17" data-name="Pfad 17" transform="translate(0 0)" fill="none">
    <path d="M33.5,0A33.5,33.5,0,1,1,0,33.5,33.5,33.5,0,0,1,33.5,0Z" stroke="none"/>
    <path d="M 33.5 2 C 29.24665069580078 2 25.12157821655273 2.83258056640625 21.2393913269043 4.474601745605469 C 17.48862838745117 6.061038970947266 14.11968994140625 8.332588195800781 11.22613906860352 11.22613906860352 C 8.332588195800781 14.11968994140625 6.061038970947266 17.48862838745117 4.474601745605469 21.2393913269043 C 2.83258056640625 25.12157821655273 2 29.24665069580078 2 33.5 C 2 37.75334930419922 2.83258056640625 41.87841796875 4.474601745605469 45.76061248779297 C 6.061038970947266 49.51136779785156 8.332588195800781 52.88031005859375 11.22613906860352 55.77386093139648 C 14.11968994140625 58.66741180419922 17.48862838745117 60.93896102905273 21.2393913269043 62.52539825439453 C 25.12157821655273 64.16741943359375 29.24665069580078 65 33.5 65 C 37.75334930419922 65 41.87841796875 64.16741943359375 45.76061248779297 62.52539825439453 C 49.51136779785156 60.93896102905273 52.88031005859375 58.66741180419922 55.77386093139648 55.77386093139648 C 58.66741180419922 52.88031005859375 60.93896102905273 49.51136779785156 62.52539825439453 45.76061248779297 C 64.16741943359375 41.87841796875 65 37.75334930419922 65 33.5 C 65 29.24665069580078 64.16741943359375 25.12157821655273 62.52539825439453 21.2393913269043 C 60.93896102905273 17.48862838745117 58.66741180419922 14.11968994140625 55.77386093139648 11.22613906860352 C 52.88031005859375 8.332588195800781 49.51136779785156 6.061038970947266 45.76061248779297 4.474601745605469 C 41.87841796875 2.83258056640625 37.75334930419922 2 33.5 2 M 33.5 0 C 52.00154113769531 0 67 14.99845886230469 67 33.5 C 67 52.00154113769531 52.00154113769531 67 33.5 67 C 14.99845886230469 67 0 52.00154113769531 0 33.5 C 0 14.99845886230469 14.99845886230469 0 33.5 0 Z" stroke="none" fill="#0362a7"/>
  </g>
  <g id="zoom-out" transform="translate(19.143 19.143)">
    <line id="Linie_6" data-name="Linie 6" x1="8.481" y1="8.481" transform="translate(20.28 20.493)" fill="none" stroke="#0362a7" stroke-linecap="square" stroke-miterlimit="10" stroke-width="3"/>
    <circle id="Ellipse_1" data-name="Ellipse 1" cx="11.311" cy="11.311" r="11.311" transform="translate(0 0)" fill="none" stroke="#0362a7" stroke-linecap="square" stroke-miterlimit="10" stroke-width="3"/>
  </g>
</svg>
