<svg xmlns="http://www.w3.org/2000/svg" xmlns:xlink="http://www.w3.org/1999/xlink" viewBox="0 0 396.85 139.01"><defs><style>.cls-1{fill:#1a171b;}.cls-2{fill:url(#Neues_Verlaufsfeld_1);}</style><linearGradient id="Neues_Verlaufsfeld_1" x1="65.42" y1="108.36" x2="143.11" y2="30.66" gradientUnits="userSpaceOnUse"><stop offset="0" stop-color="#009ee0"/><stop offset="1" stop-color="#b1c800"/></linearGradient></defs><g id="Ebene_2" data-name="Ebene 2"><g id="Ebene_1-2" data-name="Ebene 1"><path class="cls-1" d="M48.75,132.73,27.79,101l-7.91,8.75v23c0,1.55-.71,2.27-2.15,2.27H2.28A2,2,0,0,1,0,132.73V53.43a2,2,0,0,1,2.28-2.28H17.73c1.44,0,2.15.72,2.15,2.28V82.78L45.52,53.31A5.5,5.5,0,0,1,50,51.15H70.07c1.32,0,1.56,1.08.6,2.28L42.28,86.73l30.43,46c.72,1.19.36,2.27-1.2,2.27H52.82A4.33,4.33,0,0,1,48.75,132.73Z"/><path class="cls-1" d="M202.8,133.8,152.37,61.1v72.7c0,.84-.36,1.2-1.2,1.2h-3c-.84,0-1.2-.36-1.2-1.2V52.35c0-.84.36-1.2,1.2-1.2h3a2,2,0,0,1,2,1.2l50.42,72.71V52.35c0-.84.36-1.2,1.2-1.2h3c.84,0,1.19.36,1.19,1.2V133.8c0,.84-.35,1.2-1.19,1.2h-3A2.17,2.17,0,0,1,202.8,133.8Zm80.66,1.2H280a2.74,2.74,0,0,1-2.28-1.2l-22.4-29.7h-18v29.7c0,.84-.36,1.2-1.19,1.2h-3c-.84,0-1.2-.36-1.2-1.2V52.35a1.08,1.08,0,0,1,1.2-1.2h23.36c15.69,0,27.55,11,27.55,26.48,0,18-15.21,25.15-22.64,25.87l22.76,30.06C284.9,134.4,284.66,135,283.46,135ZM237.34,99h18.57c14.25,0,22.64-10.06,22.64-21.32,0-11-8.51-21.33-22.64-21.33H237.34Zm130,34.73L346.63,59.3l-20.85,74.38a1.43,1.43,0,0,1-1.67,1.32h-4.32a1.54,1.54,0,0,1-1.79-1.32L296.44,52.47c-.24-.84,0-1.32,1.08-1.32h3.23a1.58,1.58,0,0,1,1.68,1.32l19.64,74.27,20.84-74.39a1.49,1.49,0,0,1,1.68-1.2h4.07a1.49,1.49,0,0,1,1.68,1.2l20.84,74.39,19.65-74.27c.23-.84.59-1.32,1.55-1.32h3.36c1.07,0,1.31.48.95,1.32l-21.44,81.21c-.36,1-.6,1.32-1.79,1.32h-4.2C368.07,135,367.59,134.64,367.35,133.68Z"/><path class="cls-2" d="M114,93.07c0,7.22,9.83,15.51,9.83,26.3a19.65,19.65,0,0,1-39.3,0c0-10.79,9.83-19.08,9.83-26.3s-9.83-15.42-9.83-26.28a19.64,19.64,0,0,1,19.65-19.64h0a19.64,19.64,0,0,1,19.65,19.64C123.86,77.65,114,85.86,114,93.07ZM104.32,0A19.64,19.64,0,1,0,124,19.64,19.64,19.64,0,0,0,104.32,0Z"/></g></g></svg>