<svg xmlns="http://www.w3.org/2000/svg" viewBox="0 0 2513.63 453.54"><defs><style>.cls-1{fill:#fff;}.cls-1,.cls-2,.cls-4{fill-rule:evenodd;}.cls-2,.cls-5{fill:#1d1d1b;}.cls-3{fill:#009640;}.cls-4{fill:#e30613;}</style></defs><g id="Ebene_2" data-name="Ebene 2"><g id="Ebene_1-2" data-name="Ebene 1"><path class="cls-1" d="M2299,451.41c-117.35,0-212.55-95.67-212.55-213.65V2.13H2511.5V237.76c0,118-95.2,213.65-212.54,213.65"/><path class="cls-2" d="M2505.63,237.76c0,114.77-92.59,207.78-206.67,207.78s-206.68-93-206.68-207.78V8h413.35V237.76m8-237.76V237.76c0,119.15-96.14,215.78-214.67,215.78s-214.68-96.63-214.68-215.78V0Z"/><path class="cls-3" d="M2293.62,95.25V237.76a197.23,197.23,0,0,1-95.34,169.15,197.72,197.72,0,0,1-70-72.16c10.37-10.81,20.53-21.77,28.44-34.6,16.1-26.11,18.5-59.17,37.58-83.5,17.67-22.53,48.85-28.77,65.46-50.93,15.83-21.13,20.69-47.86,33.86-70.47M2102.94,18.67h162.15c-6,6.63-11.9,13.39-17.28,20.58-20.44,27.28-18.42,65.35-39.07,92-18,23.33-48.61,29.44-65.49,51-19.15,24.43-20.38,58-38.41,83a199.59,199.59,0,0,1-1.9-27.5Zm196,382.76a13.23,13.23,0,1,1,13.22-13.22A13.22,13.22,0,0,1,2299,401.43Zm42.35-7.91a21.26,21.26,0,0,1,5.21,10.14,21.42,21.42,0,0,1-10.12,5.13,12.6,12.6,0,0,0-1.61-9A12.87,12.87,0,0,0,2341.3,393.52Zm-24.21-43.94a21.24,21.24,0,0,1,11.25-1.82A21.26,21.26,0,0,1,2330.1,359a12.56,12.56,0,0,0-9-1.25A12.85,12.85,0,0,0,2317.09,349.58ZM2267.82,359a21.25,21.25,0,0,1,1.75-11.26,21.25,21.25,0,0,1,11.2,1.79,12.53,12.53,0,0,0-4,8.22A12.91,12.91,0,0,0,2267.82,359Zm-6.3,49.76a21.24,21.24,0,0,1-10.12-5.13,21.35,21.35,0,0,1,5.17-10.09,12.53,12.53,0,0,0,6.53,6.29A12.56,12.56,0,0,0,2261.52,408.78ZM2307,430.12a8,8,0,1,1-16,.05,12.58,12.58,0,0,0,8-4.3A12.93,12.93,0,0,0,2307,430.12Z"/><path class="cls-4" d="M2319.64,388.21A20.69,20.69,0,1,1,2299,367.52a20.69,20.69,0,0,1,20.69,20.69m-44.38,32.6c-8.68-6.31-11.94-17.27-3.58-21.5a3.42,3.42,0,0,0-1.32-4.06c-9.25,1.49-13.05-9.28-9.73-19.5s12.73-16.69,19.34-10.05a3.44,3.44,0,0,0,3.45-2.51c-4.28-8.34,4.8-15.29,15.54-15.29s19.81,7,15.53,15.29a3.44,3.44,0,0,0,3.45,2.51c6.61-6.64,16-.16,19.35,10.06s-.49,21-9.74,19.49a3.43,3.43,0,0,0-1.32,4.06c8.36,4.23,5.1,15.19-3.59,21.5s-20.11,6-21.55-3.23a3.41,3.41,0,0,0-4.27,0C2295.38,426.83,2284,427.12,2275.26,420.81Zm83.32-141.48h37.22c0-15.33-11.39-25.4-11.39-43.34,0-11.74,4.61-19.11,16.85-22.64a34.27,34.27,0,0,1,8.09,11.15c.1,15.71,2.73,26.5,6.48,34.3,0,0-8.46,6.44-8.46,30.12,0,0-33.58-1.54-37.61,2.84h-5.29v7.59c-8.27,2.72-16,2.81-21.47.27,0-6.74,7.23-12.86,7.23-12.86.75,0,1.38.12,2,.12a6.43,6.43,0,0,0,6.43-6.42A6,6,0,0,0,2358.58,279.33Zm-41.18-120.6c-4-4-4-12.46-4-14a6.49,6.49,0,0,0,1.58-1.16,6.43,6.43,0,0,0,0-9.09,6.65,6.65,0,0,0-1.24-1c3.62-10.68,10.68-16.23,13.54-31.39h11l26.28,20.61a43.09,43.09,0,0,0-10.36,19.33l-14-26c-9,0-14.48,7.43-9.83,18.51L2327,138l5.2,5.5C2328.32,151.2,2323.11,156.57,2317.4,158.73Zm108,185.12c0-6.6,6.49-12.32,7.14-12.87a6.5,6.5,0,0,0,1,.08,6.43,6.43,0,0,0,5.83-9.14c17.61-31.44,12.95-36-14.35-58.31-7.48-6.11-9.78-24-9.78-40.37-10.86-25.36-40.19-22.42-51.25-47.32l12.82.7a15.26,15.26,0,0,0,13.39-6.89c2-3.06,0-7.22-3.28-6.1-1.49,4.1-5.5,7.36-9.95,7.13L2345.09,169c-6.33,6.3-5,15.41,6.11,20.17V194h7.6c2.7,8.6,2.8,16.3.29,21.48-6.06,0-12.9-7.23-12.9-7.23,0-.75.12-1.38.12-2a6.41,6.41,0,0,0-7.88-6.26c-3.61-5.73-3-18-12.37-31.63l7.08-8.6L2359,151c.75-30.33,35.6-37.34,40.95-59.49,7.46,0,12.11-2.21,15.73-9.29.93-1.84.49-6.15-4.17-5.22-2.61,7.35-6.05,8.64-10.87,8.64-12.56,0-22.7-2.11-24.38,3.48-2.84,9.44-15.93,3.52-15.93,3.52l3.2-2.33a7.34,7.34,0,0,0,.81,0c2.43,0,4.39-1.28,4.39-2.85s-2-2.86-4.39-2.86-4.38,1.28-4.38,2.86c0,.09,0,.19,0,.29L2357,90c-3.88,0-4.55-3-4.65-4.48a2.84,2.84,0,0,0,.12-5.67c.06-1.16.71-3.55,3.48-5.75l22.33-17.73c3.24-2.57,9.7-6,12.56-7.51-.35-4.86,1.49-11.27,1.49-15.8,0,0,6.58,2.81,9.26,9.19,2,4.72.73,7.66-.15,10,1.21,1.91,6.29,1.93,6.88-3a17.27,17.27,0,0,0-.53-6.81c8.69.94,20.93,3.92,39.74,2a39,39,0,0,1-13.87,9.91c9.37,2.22,20.89,6.84,26.66,16.43a54.94,54.94,0,0,1-14.36,4.75c9,7.83,12.51,19.55,20.21,24.29-10,2.77-18.2,2-24.68-.21,3.13,6.4,8,13.86,14.63,17.26a113.43,113.43,0,0,1-24.67,7.72c2.13,3.56,5.26,8,9.08,10.85a43.83,43.83,0,0,0-16,3.68c-.59,8.21-2.85,25.26,18,47.23,27.75,21,34.68,36.88,12.8,65.08,0,14.3,2.39,20.05,9.8,34.65-.64,1.42-3.67,8.29-6.7,16.68-3.33,9.2-5.82,19.31-5.82,28.19a4.68,4.68,0,0,0-4.7,5v7.6C2439.27,346.23,2430.5,346.34,2425.38,343.85ZM2378,65.52c3,5,10.65,0,10.65,0S2379.37,56.75,2378,65.52Zm109.11,79.73c0,12.78-11.56,18.31-11.56,27.86,0,11.29,11.16,16.74,11.16,27.64,0,11.27-8.85,13.18-14.59,11.23a5.11,5.11,0,0,0,3.58-5.26c0-13.35-28.59-12.64-28.59-33.61,0-11,7.78-19.7,7.78-26.16a10.66,10.66,0,0,0-6.71-9.39c5.85-4.15,15.68-1.61,18.21,4.74,2-5.29,3.88-13.15,1.5-20.8,13.44,5.15,19.19,13.9,19.22,23.69ZM2304.29,18.67H2495V237.76a197.25,197.25,0,0,1-95.34,169.15,197.23,197.23,0,0,1-95.34-169.15Z"/><path class="cls-5" d="M4.4,13.3H20.9L40.7,72h.2L60.1,13.3H76.9v74H64.8V32.1h-.2a150.53,150.53,0,0,1-4.4,15.1L45.8,87.31H34.7L20.4,47.2a126.52,126.52,0,0,1-4.5-15.6h-.2V87.31H4.4v-74"/><path class="cls-5" d="M92.46,14.3h12.6V25H92.46Zm.1,19.9H105V87.31H92.56Z"/><path class="cls-5" d="M119,34.2h12.4v7.2a26.32,26.32,0,0,1,19.4-8.2c9.3,0,15.3,5.5,15.3,16V87.31h-12.4v-35c0-5.9-2.5-8.6-7.9-8.6s-9.9,2.8-14.4,6.9V87.31H119V34.2"/><path class="cls-5" d="M179.73,14.3h12.6V25h-12.6Zm.1,19.9h12.4V87.31h-12.4Z"/><path class="cls-5" d="M202.07,80l6.7-7.5a26.22,26.22,0,0,0,16.7,6.3c6.6,0,10.6-1.7,10.6-6.11s-5.4-5.59-11.8-7.09c-9.1-2.1-20-4.51-20-16.81,0-9.3,8-15.6,19.7-15.6,10.1,0,16.3,2.9,21.8,7.5l-5.9,8c-3.9-3.2-10.2-5.8-15-5.8-6.8,0-9,2.4-9,5.4,0,4.3,5.3,5.6,11.6,7,9.1,2,20.2,4.3,20.2,16.71,0,11.2-10.1,16.4-22.2,16.4-9.8,0-18.6-3.5-23.4-8.4"/><path class="cls-5" d="M263.42,73.4V44h-9.21V34.2h9.21V15.7h12.3V34.2h13.7V44h-13.7V70.3c0,5.71,1.7,8,7.8,8a20,20,0,0,0,5.3-.7v9.7a60.67,60.67,0,0,1-9,.7c-13.5,0-16.4-5-16.4-14.61"/><path class="cls-5" d="M295.6,60.8c0-20.2,14.3-27.6,25.3-27.6,11.9,0,23.3,7.1,23.3,28.7v2.9H307.9c.5,9.6,6.4,13.81,14.2,13.81,6.9,0,10.9-2.3,14.9-6.21l6.5,6.41c-5.5,6.1-12.8,9.6-22.3,9.6-13.3,0-25.6-8.1-25.6-27.61m37.3-5.2c-.7-8.1-4.7-12.4-12.1-12.4-6,0-11.5,3.4-12.7,12.4Z"/><path class="cls-5" d="M355.49,34.2H367.8v8.7h.2c3.3-5.3,9-9.7,19.1-9.7h.8l-.4,11.3c-.6-.1-2.6-.2-3.3-.2-7.9,0-12.9,3.7-16.4,9.4V87.31H355.49V34.2"/><path class="cls-5" d="M397,14.3h12.6V25H397Zm.1,19.9h12.4V87.31h-12.4Z"/><path class="cls-5" d="M423,72.3V34.2h12.4V69.4c0,5.91,2.5,8.61,7.9,8.61s9.9-2.8,14.4-6.9V34.2h12.4V87.31h-12.4v-7.2a26.32,26.32,0,0,1-19.4,8.2c-9.3,0-15.3-5.5-15.3-16"/><path class="cls-5" d="M484,34.2h12.3v7.3a24.17,24.17,0,0,1,18.2-8.3c8.9,0,12.4,3.5,14.5,8.7,4.2-4.6,10.5-8.7,18.61-8.7,10.8,0,15.5,6.5,15.5,16V87.31h-12.3v-35c0-5.9-1.7-8.6-7.5-8.6-5,0-9,2.8-13.61,6.9V87.31h-12.3v-35c0-5.9-1.7-8.6-7.5-8.6-4.9,0-9,2.8-13.6,6.9V87.31H484V34.2"/><path class="cls-5" d="M611.13,44h-9.2V34.2h9.2V28.8c0-8.9,3.7-15.8,17.2-15.8,2.3,0,6.4.4,7.3.5V23a23,23,0,0,0-4.2-.4c-4.4,0-8,1.2-8,6.9v4.7H635V44h-11.6V87.31h-12.3V44"/><path class="cls-5" d="M643.73,72.3V34.2h12.4V69.4c0,5.91,2.5,8.61,7.9,8.61s9.9-2.8,14.4-6.9V34.2h12.4V87.31h-12.4v-7.2a26.32,26.32,0,0,1-19.4,8.2c-9.3,0-15.3-5.5-15.3-16m8.1-55.5H663V28.9h-11.2Zm19.7,0h11.3V28.9h-11.3Z"/><path class="cls-5" d="M704.72,34.2H717v8.7h.2c3.3-5.3,9-9.7,19.1-9.7h.8l-.4,11.3c-.6-.1-2.6-.2-3.3-.2-7.9,0-12.9,3.7-16.4,9.4V87.31h-12.3V34.2"/><path class="cls-5" d="M772,13.3h12.6L794,51.6c1.5,5.9,2.9,11.41,3.9,17.2h.2c1-5.7,2.3-11.2,3.8-17.1l8.9-38.4h12L832,51.9c1.6,6.3,2.8,10.7,3.9,16.9h.2c1.1-6.4,2.2-10.3,3.6-16.6l9.2-38.9h11.7l-19.5,74h-10.9L816.92,30.6h-.2l-14,56.71h-11L772,13.3"/><path class="cls-5" d="M870.71,14.3h12.6V25h-12.6Zm.1,19.9h12.4V87.31h-12.4Z"/><path class="cls-5" d="M897.21,34.2h12.31v8.7h.2c3.3-5.3,9-9.7,19.1-9.7h.8l-.4,11.3c-.6-.1-2.6-.2-3.3-.2-7.9,0-12.9,3.7-16.4,9.4V87.31H897.21V34.2"/><path class="cls-5" d="M945.49,73.4V44h-9.2V34.2h9.2V15.7h12.3V34.2h13.7V44h-13.7V70.3c0,5.71,1.7,8,7.8,8a20,20,0,0,0,5.31-.7v9.7a60.91,60.91,0,0,1-9,.7c-13.51,0-16.41-5-16.41-14.61"/><path class="cls-5" d="M978.87,80l6.7-7.5a26.22,26.22,0,0,0,16.7,6.3c6.6,0,10.61-1.7,10.61-6.11s-5.41-5.59-11.81-7.09c-9.1-2.1-20-4.51-20-16.81,0-9.3,8-15.6,19.7-15.6,10.11,0,16.31,2.9,21.81,7.5l-5.9,8c-3.91-3.2-10.21-5.8-15-5.8-6.8,0-9,2.4-9,5.4,0,4.3,5.3,5.6,11.6,7,9.11,2,20.21,4.3,20.21,16.71,0,11.2-10.1,16.4-22.21,16.4-9.8,0-18.6-3.5-23.4-8.4"/><path class="cls-5" d="M1032.58,60.8c0-20.3,13.7-27.6,25.5-27.6,13.2,0,18.81,7.3,22,15.5l-10.41,3.7c-2.1-6-5.9-8.9-11.8-8.9-7,0-12.9,4.6-12.9,17.3,0,11.31,4.6,17.51,12.7,17.51,5.6,0,9.5-1.7,12.4-9.2l10.21,3.69c-3.81,8.51-10.11,15.61-22.91,15.61-12.3,0-24.8-8.2-24.8-27.61"/><path class="cls-5" d="M1090.17,13.3h12.4V41.4a26.32,26.32,0,0,1,19.4-8.2c9.3,0,15.31,5.5,15.31,16V87.31h-12.41v-35c0-5.9-2.5-8.6-7.9-8.6s-9.9,2.8-14.4,6.9V87.31h-12.4v-74"/><path class="cls-5" d="M1147.38,74.51c0-11.5,9.8-19.21,34.6-22V50.9c0-5.3-2.8-7.6-8.7-7.6-7.4,0-13.4,3.6-17.9,7.2l-6-7.7a38,38,0,0,1,25.6-9.6c14.2,0,19.1,6.8,19.1,19.2V74.3c0,6.41.4,10.31,1.5,13h-12.4a19.24,19.24,0,0,1-1.2-6.8c-5.4,5.5-11.7,7.6-19.6,7.6-8.6,0-15-4.8-15-13.6m34.6-2V60.8c-14.7,2-22.5,5.6-22.5,11.4,0,4.2,2.9,6.41,7.4,6.41A21.2,21.2,0,0,0,1182,72.51Z"/><path class="cls-5" d="M1211.85,44h-9.2V34.2h9.2V28.8c0-8.9,3.7-15.8,17.2-15.8,2.3,0,6.4.4,7.3.5V23a23,23,0,0,0-4.2-.4c-4.4,0-8,1.2-8,6.9v4.7h11.6V44h-11.6V87.31h-12.3V44"/><path class="cls-5" d="M1251.67,73.4V44h-9.2V34.2h9.2V15.7H1264V34.2h13.7V44H1264V70.3c0,5.71,1.7,8,7.8,8a20,20,0,0,0,5.3-.7v9.7a60.67,60.67,0,0,1-9,.7c-13.5,0-16.4-5-16.4-14.61"/><polyline class="cls-5" points="1293.91 87.31 1288.61 87.31 1288.61 74.31 1302.41 74.31 1302.41 85.61 1296.11 98.51 1290.41 98.51 1293.91 87.31"/><rect class="cls-5" x="1348.61" y="13.3" width="12.6" height="74"/><path class="cls-5" d="M1376.77,34.2h12.4v7.2a26.32,26.32,0,0,1,19.4-8.2c9.3,0,15.3,5.5,15.3,16V87.31h-12.4v-35c0-5.9-2.5-8.6-7.9-8.6s-9.9,2.8-14.4,6.9V87.31h-12.4V34.2"/><path class="cls-5" d="M1437.47,34.2h12.4v7.2a26.32,26.32,0,0,1,19.4-8.2c9.3,0,15.3,5.5,15.3,16V87.31h-12.4v-35c0-5.9-2.5-8.6-7.9-8.6s-9.9,2.8-14.4,6.9V87.31h-12.4V34.2"/><path class="cls-5" d="M1495.43,60.8c0-19.6,12.9-27.6,25.9-27.6s25.9,8,25.9,27.6c0,19.41-13,27.61-25.9,27.61s-25.9-8.2-25.9-27.61m39.4,0c0-9.9-4.2-17.1-13.5-17.1-8.9,0-13.5,6.4-13.5,17.1,0,10.1,4.1,17.31,13.5,17.31C1530.23,78.11,1534.83,71.7,1534.83,60.8Z"/><polyline class="cls-5" points="1550.84 34.2 1563.74 34.2 1576.74 73.41 1576.94 73.41 1589.84 34.2 1601.74 34.2 1582.54 87.41 1570.04 87.41 1550.84 34.2"/><path class="cls-5" d="M1606.27,74.51c0-11.5,9.8-19.21,34.6-22V50.9c0-5.3-2.8-7.6-8.7-7.6-7.4,0-13.4,3.6-17.9,7.2l-6-7.7a38,38,0,0,1,25.6-9.6c14.2,0,19.1,6.8,19.1,19.2V74.3c0,6.41.4,10.31,1.5,13h-12.4a19.24,19.24,0,0,1-1.2-6.8c-5.4,5.5-11.7,7.6-19.6,7.6-8.6,0-15-4.8-15-13.6m34.6-2V60.8c-14.7,2-22.5,5.6-22.5,11.4,0,4.2,2.9,6.41,7.4,6.41A21.2,21.2,0,0,0,1640.87,72.51Z"/><path class="cls-5" d="M1670.55,73.4V44h-9.2V34.2h9.2V15.7h12.3V34.2h13.71V44h-13.71V70.3c0,5.71,1.71,8,7.81,8a20,20,0,0,0,5.3-.7v9.7a60.67,60.67,0,0,1-9,.7c-13.51,0-16.41-5-16.41-14.61"/><path class="cls-5" d="M1706.19,14.3h12.61V25h-12.61Zm.1,19.9h12.4V87.31h-12.4Z"/><path class="cls-5" d="M1730,60.8c0-19.6,12.9-27.6,25.9-27.6s25.91,8,25.91,27.6c0,19.41-13,27.61-25.91,27.61S1730,80.21,1730,60.8m39.41,0c0-9.9-4.21-17.1-13.51-17.1-8.9,0-13.5,6.4-13.5,17.1,0,10.1,4.1,17.31,13.5,17.31C1764.79,78.11,1769.4,71.7,1769.4,60.8Z"/><path class="cls-5" d="M1792.92,34.2h12.4v7.2a26.32,26.32,0,0,1,19.4-8.2c9.3,0,15.3,5.5,15.3,16V87.31h-12.4v-35c0-5.9-2.5-8.6-7.9-8.6s-9.9,2.8-14.4,6.9V87.31h-12.4V34.2"/><polyline class="cls-5" points="1859.3 87.31 1854 87.31 1854 74.31 1867.8 74.31 1867.8 85.61 1861.5 98.51 1855.8 98.51 1859.3 87.31"/><path class="cls-5" d="M4.4,133.3H25.5c23.2,0,38.4,10.8,38.4,36.7,0,26.4-15.5,37.31-38.4,37.31H4.4v-74m22.2,62.81c16.9,0,24.8-7.41,24.8-26.11,0-17.8-8-25.1-25-25.1H16.9v51.21Z"/><path class="cls-5" d="M76.47,134.3h12.6V145H76.47Zm.1,19.9H89v53.11H76.57Z"/><path class="cls-5" d="M97.6,214.91c0-5.3,3.3-9.1,8.7-11.2a7,7,0,0,1-4.1-6.5c0-4,3.2-7.31,7.2-9.7A17.51,17.51,0,0,1,101,172.2c0-10.9,8.4-19,22.3-19,7.3,0,12.7,2.4,16.3,5.6a27.24,27.24,0,0,1,13.2-5.2v10a31.77,31.77,0,0,0-9.3,1.4,13.52,13.52,0,0,1,1.9,7.2c0,11.1-8.3,18.91-22.1,18.91a25.28,25.28,0,0,1-7.4-1.1c-1.6.89-2.7,2-2.7,3.39,0,2.11,1.4,2.81,6.1,3.21l9.4.6c15.7,1,21.9,5.2,21.9,14.5,0,10.9-11,16.2-27.4,16.2-18.3,0-25.6-5.3-25.6-13m42.1-2.1c0-3.8-2.7-5.2-13.5-5.9l-9.2-.6a17.33,17.33,0,0,1-3.2-.3c-3.5,1.6-4.9,4.1-4.9,6.8,0,4.7,5.4,6.2,16.2,6.2C134.1,219,139.7,216.61,139.7,212.81Zm-5.5-40.21c0-6.6-3.8-10.2-10.8-10.2-6.8,0-10.8,3.7-10.8,10.2s4.1,10,10.9,10S134.2,179.1,134.2,172.6Z"/><path class="cls-5" d="M162.1,134.3h12.6V145H162.1Zm.1,19.9h12.4v53.11H162.2Z"/><path class="cls-5" d="M192.9,193.4V164h-9.2v-9.8h9.2V135.7h12.3v18.5h13.7V164H205.2v26.3c0,5.71,1.7,8,7.8,8a19.59,19.59,0,0,0,5.3-.71v9.71a60.67,60.67,0,0,1-9,.7c-13.5,0-16.4-5-16.4-14.61"/><path class="cls-5" d="M226.5,194.51c0-11.5,9.8-19.21,34.6-22v-1.6c0-5.3-2.8-7.6-8.7-7.6-7.4,0-13.4,3.6-17.9,7.2l-6-7.7a38,38,0,0,1,25.6-9.6c14.2,0,19.1,6.8,19.1,19.2v21.9c0,6.41.4,10.31,1.5,13H262.3a19.24,19.24,0,0,1-1.2-6.8c-5.4,5.5-11.7,7.6-19.6,7.6-8.6,0-15-4.8-15-13.6m34.6-2V180.8c-14.7,2-22.5,5.6-22.5,11.4,0,4.2,2.9,6.4,7.4,6.4A21.2,21.2,0,0,0,261.1,192.51Z"/><rect class="cls-5" x="287.02" y="133.3" width="12.4" height="74"/><path class="cls-5" d="M313.55,134.3h12.6V145h-12.6Zm.1,19.9h12.4v53.11h-12.4Z"/><path class="cls-5" d="M335.89,200l6.7-7.5a26.22,26.22,0,0,0,16.7,6.3c6.6,0,10.6-1.7,10.6-6.11s-5.4-5.59-11.8-7.09c-9.1-2.1-20-4.51-20-16.81,0-9.3,8-15.6,19.7-15.6,10.1,0,16.3,2.9,21.81,7.5l-5.91,8c-3.9-3.2-10.2-5.8-15-5.8-6.8,0-9,2.4-9,5.4,0,4.3,5.3,5.6,11.6,7,9.1,2,20.2,4.3,20.2,16.71,0,11.2-10.1,16.4-22.2,16.4-9.8,0-18.6-3.5-23.4-8.4"/><path class="cls-5" d="M392.39,134.3H405V145h-12.6Zm.1,19.9h12.4v53.11h-12.4Z"/><path class="cls-5" d="M416.19,180.8c0-20.2,14.3-27.6,25.3-27.6,11.9,0,23.3,7.1,23.3,28.7v2.9h-36.3c.5,9.6,6.4,13.8,14.2,13.8,6.9,0,10.9-2.29,14.9-6.2l6.5,6.41c-5.5,6.1-12.8,9.6-22.3,9.6-13.3,0-25.6-8.1-25.6-27.61m37.3-5.2c-.7-8.1-4.7-12.4-12.1-12.4-6,0-11.5,3.4-12.7,12.4Z"/><path class="cls-5" d="M476.09,154.2h12.3v8.7h.2c3.3-5.3,9-9.7,19.1-9.7h.8l-.4,11.3c-.6-.1-2.6-.2-3.3-.2-7.9,0-12.9,3.7-16.4,9.4v33.61h-12.3V154.2"/><path class="cls-5" d="M517.15,192.3V154.2h12.4v35.2c0,5.91,2.5,8.61,7.9,8.61s9.9-2.8,14.4-6.9V154.2h12.4v53.11h-12.4V200.1a26.29,26.29,0,0,1-19.4,8.21c-9.3,0-15.3-5.5-15.3-16"/><path class="cls-5" d="M578.14,154.2h12.4v7.2a26.32,26.32,0,0,1,19.4-8.2c9.3,0,15.3,5.5,15.3,16v38.11h-12.4v-35c0-5.9-2.5-8.6-7.9-8.6s-9.9,2.8-14.4,6.9v36.71h-12.4V154.2"/><path class="cls-5" d="M633.17,214.91c0-5.3,3.3-9.1,8.7-11.2a7,7,0,0,1-4.1-6.5c0-4,3.2-7.31,7.2-9.7a17.51,17.51,0,0,1-8.4-15.31c0-10.9,8.4-19,22.3-19,7.3,0,12.7,2.4,16.3,5.6a27.24,27.24,0,0,1,13.2-5.2v10a31.77,31.77,0,0,0-9.3,1.4,13.52,13.52,0,0,1,1.9,7.2c0,11.1-8.3,18.91-22.1,18.91a25.28,25.28,0,0,1-7.4-1.1c-1.6.89-2.7,2-2.7,3.39,0,2.11,1.4,2.81,6.1,3.21l9.4.6c15.7,1,21.9,5.2,21.9,14.5,0,10.9-11,16.2-27.4,16.2-18.3,0-25.6-5.3-25.6-13m42.1-2.1c0-3.8-2.7-5.2-13.5-5.9l-9.2-.6a17.33,17.33,0,0,1-3.2-.3c-3.5,1.6-4.9,4.1-4.9,6.8,0,4.7,5.4,6.2,16.2,6.2C669.67,219,675.27,216.61,675.27,212.81Zm-5.5-40.21c0-6.6-3.8-10.2-10.8-10.2-6.8,0-10.8,3.7-10.8,10.2s4.1,10,10.9,10S669.77,179.1,669.77,172.6Z"/><path class="cls-5" d="M727,192.3V154.2h12.4v35.2c0,5.91,2.5,8.61,7.9,8.61s9.9-2.8,14.4-6.9V154.2h12.4v53.11h-12.4V200.1a26.29,26.29,0,0,1-19.4,8.21c-9.3,0-15.3-5.5-15.3-16"/><path class="cls-5" d="M788,154.2h12.4v7.2a26.32,26.32,0,0,1,19.4-8.2c9.3,0,15.3,5.5,15.3,16v38.11h-12.4v-35c0-5.9-2.5-8.6-7.9-8.6s-9.9,2.8-14.4,6.9v36.71H788V154.2"/><path class="cls-5" d="M846.14,180.9c0-18.4,9.1-27.7,22.7-27.7a20.24,20.24,0,0,1,15.2,6.7V133.3h12.3v61c0,6.41.4,10.31,1.6,13h-12.7a20,20,0,0,1-1.2-7.21c-3.9,4.51-9,8-16.9,8-12.1,0-21-8.8-21-27.21M884,191.3V170a16.2,16.2,0,0,0-12.5-6.6c-9.3,0-13.1,6-13.1,17.8,0,11.2,4.8,16.81,12.7,16.81C876.24,198,881.14,194.8,884,191.3Z"/><polyline class="cls-5" points="941.73 133.3 989.54 133.3 989.54 144.9 954.24 144.9 954.24 163.3 980.14 163.3 980.14 174.4 954.24 174.4 954.24 195.91 991.54 195.91 991.54 207.31 941.73 207.31 941.73 133.3"/><path class="cls-5" d="M1001.83,154.2h12.4v7.2a26.32,26.32,0,0,1,19.4-8.2c9.31,0,15.31,5.5,15.31,16v38.11h-12.4v-35c0-5.9-2.5-8.6-7.91-8.6s-9.9,2.8-14.4,6.9v36.71h-12.4V154.2"/><path class="cls-5" d="M1059.79,180.8c0-20.2,14.3-27.6,25.3-27.6,11.9,0,23.31,7.1,23.31,28.7v2.9h-36.31c.5,9.6,6.4,13.8,14.2,13.8,6.9,0,10.9-2.29,14.9-6.2l6.51,6.41c-5.51,6.1-12.81,9.6-22.31,9.6-13.3,0-25.6-8.1-25.6-27.61m37.3-5.2c-.7-8.1-4.7-12.4-12.1-12.4-6,0-11.5,3.4-12.7,12.4Z"/><path class="cls-5" d="M1119.69,154.2H1132v8.7h.2c3.3-5.3,9-9.7,19.1-9.7h.8l-.4,11.3c-.6-.1-2.6-.2-3.3-.2-7.9,0-12.9,3.7-16.4,9.4v33.61h-12.3V154.2"/><path class="cls-5" d="M1155.86,214.91c0-5.3,3.3-9.1,8.7-11.2a7,7,0,0,1-4.1-6.5c0-4,3.2-7.31,7.2-9.7a17.51,17.51,0,0,1-8.4-15.31c0-10.9,8.4-19,22.3-19,7.3,0,12.7,2.4,16.3,5.6a27.24,27.24,0,0,1,13.2-5.2v10a31.77,31.77,0,0,0-9.3,1.4,13.52,13.52,0,0,1,1.9,7.2c0,11.1-8.3,18.91-22.1,18.91a25.28,25.28,0,0,1-7.4-1.1c-1.6.89-2.7,2-2.7,3.39,0,2.11,1.4,2.81,6.1,3.21l9.4.6c15.7,1,21.9,5.2,21.9,14.5,0,10.9-11,16.2-27.4,16.2-18.3,0-25.6-5.3-25.6-13m42.1-2.1c0-3.8-2.7-5.2-13.5-5.9l-9.2-.6a17.33,17.33,0,0,1-3.2-.3c-3.5,1.6-4.9,4.1-4.9,6.8,0,4.7,5.4,6.2,16.2,6.2C1192.36,219,1198,216.61,1198,212.81Zm-5.5-40.21c0-6.6-3.8-10.2-10.8-10.2-6.8,0-10.8,3.7-10.8,10.2s4.1,10,10.9,10S1192.46,179.1,1192.46,172.6Z"/><path class="cls-5" d="M1220.36,134.3H1233V145h-12.6Zm.1,19.9h12.4v53.11h-12.4Z"/><path class="cls-5" d="M1244.16,180.8c0-20.2,14.3-27.6,25.3-27.6,11.9,0,23.3,7.1,23.3,28.7v2.9h-36.3c.5,9.6,6.4,13.8,14.2,13.8,6.9,0,10.9-2.29,14.9-6.2l6.5,6.41c-5.5,6.1-12.8,9.6-22.3,9.6-13.3,0-25.6-8.1-25.6-27.61m37.3-5.2c-.7-8.1-4.7-12.4-12.1-12.4-6,0-11.5,3.4-12.7,12.4Z"/><path class="cls-5" d="M0,300.9c0-18.4,9.1-27.7,22.7-27.7a20.24,20.24,0,0,1,15.2,6.7V253.3H50.2v61c0,6.41.4,10.3,1.6,13H39.1a20,20,0,0,1-1.2-7.21c-3.9,4.5-9,8-16.9,8-12.1,0-21-8.8-21-27.21m37.9,10.4V290a16.2,16.2,0,0,0-12.5-6.6c-9.3,0-13.1,6-13.1,17.81C12.3,312.4,17.1,318,25,318,30.1,318,35,314.8,37.9,311.3Z"/><path class="cls-5" d="M61.2,300.8c0-20.2,14.3-27.6,25.3-27.6,11.9,0,23.3,7.1,23.3,28.7v2.9H73.5c.5,9.6,6.4,13.8,14.2,13.8,6.9,0,10.9-2.29,14.9-6.2l6.5,6.41c-5.5,6.1-12.8,9.6-22.3,9.6-13.3,0-25.6-8.1-25.6-27.61m37.3-5.2c-.7-8.1-4.7-12.4-12.1-12.4-6,0-11.5,3.4-12.7,12.4Z"/><path class="cls-5" d="M117.5,320l6.7-7.5a26.22,26.22,0,0,0,16.7,6.3c6.6,0,10.6-1.71,10.6-6.1s-5.4-5.61-11.8-7.11c-9.1-2.09-20-4.5-20-16.8,0-9.3,8-15.6,19.7-15.6,10.1,0,16.3,2.9,21.8,7.5l-5.9,8c-3.9-3.2-10.2-5.8-15-5.8-6.8,0-9,2.4-9,5.4,0,4.3,5.3,5.6,11.6,7,9.1,2,20.2,4.3,20.2,16.71,0,11.2-10.1,16.4-22.2,16.4-9.8,0-18.6-3.5-23.4-8.4"/><polyline class="cls-5" points="205.4 253.3 217.9 253.3 217.9 315.9 252 315.9 252 327.31 205.4 327.31 205.4 253.3"/><path class="cls-5" d="M260.21,314.51c0-11.5,9.81-19.21,34.61-22v-1.6c0-5.3-2.8-7.6-8.7-7.6-7.4,0-13.4,3.6-17.9,7.2l-6-7.7a38,38,0,0,1,25.6-9.6c14.2,0,19.1,6.8,19.1,19.2v21.9c0,6.41.4,10.3,1.5,13H296a19.29,19.29,0,0,1-1.2-6.8c-5.4,5.5-11.7,7.6-19.6,7.6-8.6,0-15-4.8-15-13.6m34.61-2V300.8c-14.7,2-22.5,5.6-22.5,11.41,0,4.19,2.9,6.39,7.4,6.39A21.2,21.2,0,0,0,294.82,312.51Z"/><path class="cls-5" d="M320.43,274.2h12.4v7.2a26.35,26.35,0,0,1,19.41-8.2c9.3,0,15.3,5.5,15.3,16v38.11h-12.4v-35c0-5.9-2.5-8.6-7.9-8.6s-9.91,2.8-14.41,6.9v36.71h-12.4V274.2"/><path class="cls-5" d="M378.61,300.9c0-18.4,9.1-27.7,22.71-27.7a20.24,20.24,0,0,1,15.2,6.7V253.3h12.3v61c0,6.41.4,10.3,1.6,13h-12.7a20,20,0,0,1-1.2-7.21c-3.9,4.5-9,8-16.91,8-12.09,0-21-8.8-21-27.21m37.91,10.4V290a16.2,16.2,0,0,0-12.5-6.6c-9.31,0-13.1,6-13.1,17.81,0,11.19,4.79,16.8,12.7,16.8C408.72,318,413.62,314.8,416.52,311.3Z"/><path class="cls-5" d="M439.81,300.8c0-20.2,14.3-27.6,25.3-27.6,11.91,0,23.31,7.1,23.31,28.7v2.9H452.11c.5,9.6,6.4,13.8,14.2,13.8,6.9,0,10.9-2.29,14.9-6.2l6.51,6.41c-5.51,6.1-12.8,9.6-22.3,9.6-13.31,0-25.61-8.1-25.61-27.61m37.3-5.2c-.69-8.1-4.69-12.4-12.1-12.4-6,0-11.5,3.4-12.7,12.4Z"/><path class="cls-5" d="M496.11,320l6.7-7.5a26.22,26.22,0,0,0,16.7,6.3c6.6,0,10.6-1.71,10.6-6.1s-5.4-5.61-11.8-7.11c-9.1-2.09-20-4.5-20-16.8,0-9.3,8-15.6,19.7-15.6,10.1,0,16.31,2.9,21.81,7.5l-5.91,8c-3.89-3.2-10.2-5.8-15-5.8-6.8,0-9,2.4-9,5.4,0,4.3,5.3,5.6,11.6,7,9.1,2,20.21,4.3,20.21,16.71,0,11.2-10.11,16.4-22.21,16.4-9.8,0-18.6-3.5-23.4-8.4"/><polyline class="cls-5" points="584.01 253.3 596.71 253.3 631.71 306.11 631.91 306.11 631.91 253.3 643.51 253.3 643.51 327.31 632.11 327.31 595.81 273.4 595.61 273.4 595.61 327.31 584.01 327.31 584.01 253.3"/><path class="cls-5" d="M656.12,300.8c0-19.6,12.9-27.6,25.9-27.6s25.9,8,25.9,27.6c0,19.41-13,27.61-25.9,27.61s-25.9-8.2-25.9-27.61m39.4,0c0-9.9-4.2-17.1-13.5-17.1-8.9,0-13.5,6.4-13.5,17.1,0,10.1,4.1,17.3,13.5,17.3C690.92,318.1,695.52,311.71,695.52,300.8Z"/><path class="cls-5" d="M719.05,274.2h12.3v8.7h.2c3.3-5.3,9-9.7,19.1-9.7h.8l-.4,11.3c-.6-.1-2.6-.2-3.3-.2-7.9,0-12.9,3.7-16.4,9.4v33.61h-12.3V274.2"/><path class="cls-5" d="M757.37,300.9c0-18.4,9.1-27.7,22.7-27.7a20.24,20.24,0,0,1,15.2,6.7V253.3h12.3v61c0,6.41.4,10.3,1.6,13h-12.7a20,20,0,0,1-1.2-7.21c-3.9,4.5-9,8-16.9,8-12.1,0-21-8.8-21-27.21m37.9,10.4V290a16.2,16.2,0,0,0-12.5-6.6c-9.3,0-13.1,6-13.1,17.81,0,11.19,4.8,16.8,12.7,16.8C787.47,318,792.37,314.8,795.27,311.3Z"/><path class="cls-5" d="M821.68,274.2H834v8.7h.2c3.3-5.3,9-9.7,19.1-9.7h.8l-.4,11.3c-.6-.1-2.6-.2-3.3-.2-7.9,0-12.9,3.7-16.4,9.4v33.61h-12.3V274.2"/><path class="cls-5" d="M863,253.3h12.4v28.1a26.32,26.32,0,0,1,19.4-8.2c9.3,0,15.3,5.5,15.3,16v38.11h-12.4v-35c0-5.9-2.5-8.6-7.9-8.6s-9.9,2.8-14.4,6.9v36.71H863v-74"/><path class="cls-5" d="M921,300.8c0-20.2,14.3-27.6,25.3-27.6,11.9,0,23.3,7.1,23.3,28.7v2.9h-36.3c.5,9.6,6.4,13.8,14.2,13.8,6.9,0,10.9-2.29,14.9-6.2l6.5,6.41c-5.5,6.1-12.8,9.6-22.3,9.6-13.3,0-25.6-8.1-25.6-27.61m37.3-5.2c-.7-8.1-4.7-12.4-12.1-12.4-6,0-11.5,3.4-12.7,12.4Z"/><path class="cls-5" d="M980.87,254.3h12.61V265H980.87Zm.1,19.9h12.41v53.11H981Z"/><path class="cls-5" d="M1007.38,274.2h12.4v7.2a26.32,26.32,0,0,1,19.4-8.2c9.31,0,15.31,5.5,15.31,16v38.11h-12.41v-35c0-5.9-2.5-8.6-7.9-8.6s-9.9,2.8-14.4,6.9v36.71h-12.4V274.2"/><rect class="cls-5" x="1066.7" y="291.5" width="24.7" height="8.8"/><path class="cls-5" d="M1095.88,253.3h12.6l9.4,38.3c1.5,5.9,2.9,11.41,3.9,17.2h.2c1-5.7,2.3-11.2,3.8-17.1l8.9-38.4h12l9.21,38.6c1.6,6.31,2.8,10.7,3.9,16.9h.2c1.1-6.4,2.2-10.3,3.6-16.6l9.2-38.9h11.7l-19.5,74h-10.91l-13.3-56.71h-.2l-14,56.71h-11l-19.7-74"/><path class="cls-5" d="M1187.33,300.8c0-20.2,14.3-27.6,25.3-27.6,11.9,0,23.3,7.1,23.3,28.7v2.9h-36.3c.5,9.6,6.4,13.8,14.2,13.8,6.9,0,10.9-2.29,14.9-6.2l6.5,6.41c-5.5,6.1-12.8,9.6-22.3,9.6-13.3,0-25.6-8.1-25.6-27.61m37.3-5.2c-.7-8.1-4.7-12.4-12.1-12.4-6,0-11.5,3.4-12.7,12.4Z"/><path class="cls-5" d="M1243.63,320l6.7-7.5a26.22,26.22,0,0,0,16.7,6.3c6.6,0,10.6-1.71,10.6-6.1s-5.4-5.61-11.8-7.11c-9.1-2.09-20-4.5-20-16.8,0-9.3,8-15.6,19.7-15.6,10.1,0,16.3,2.9,21.8,7.5l-5.9,8c-3.9-3.2-10.2-5.8-15-5.8-6.8,0-9,2.4-9,5.4,0,4.3,5.3,5.6,11.6,7,9.1,2,20.2,4.3,20.2,16.71,0,11.2-10.1,16.4-22.2,16.4-9.8,0-18.6-3.5-23.4-8.4"/><path class="cls-5" d="M1305,313.4V284h-9.2v-9.8h9.2V255.7h12.3v18.5H1331V284h-13.7v26.3c0,5.71,1.7,8,7.8,8a19.59,19.59,0,0,0,5.3-.71v9.71a62.07,62.07,0,0,1-9,.7c-13.5,0-16.4-5-16.4-14.61"/><path class="cls-5" d="M1347.62,284h-9.2v-9.8h9.2v-5.4c0-8.9,3.7-15.8,17.2-15.8,2.3,0,6.4.4,7.3.5V263a23,23,0,0,0-4.2-.4c-4.4,0-8,1.2-8,6.9v4.7h11.6V284h-11.6v43.31h-12.3V284"/><path class="cls-5" d="M1377.86,314.51c0-11.5,9.8-19.21,34.6-22v-1.6c0-5.3-2.8-7.6-8.7-7.6-7.4,0-13.4,3.6-17.9,7.2l-6-7.7a38,38,0,0,1,25.6-9.6c14.2,0,19.1,6.8,19.1,19.2v21.9c0,6.41.4,10.3,1.5,13h-12.4a19.29,19.29,0,0,1-1.2-6.8c-5.4,5.5-11.7,7.6-19.6,7.6-8.6,0-15-4.8-15-13.6m34.6-2V300.8c-14.7,2-22.5,5.6-22.5,11.41,0,4.19,2.9,6.39,7.4,6.39A21.2,21.2,0,0,0,1412.46,312.51Z"/><rect class="cls-5" x="1438.39" y="253.3" width="12.4" height="74"/><path class="cls-5" d="M1462.15,300.8c0-20.2,14.3-27.6,25.3-27.6,11.9,0,23.3,7.1,23.3,28.7v2.9h-36.3c.5,9.6,6.4,13.8,14.2,13.8,6.9,0,10.9-2.29,14.9-6.2l6.5,6.41c-5.5,6.1-12.8,9.6-22.3,9.6-13.3,0-25.6-8.1-25.6-27.61m37.3-5.2c-.7-8.1-4.7-12.4-12.1-12.4-6,0-11.5,3.4-12.7,12.4Z"/><path class="cls-5" d="M1522.05,274.2h12.4v7.2a26.32,26.32,0,0,1,19.4-8.2c9.3,0,15.3,5.5,15.3,16v38.11h-12.4v-35c0-5.9-2.5-8.6-7.9-8.6s-9.9,2.8-14.4,6.9v36.71h-12.4V274.2"/></g></g></svg>